<svg width="90" height="69" viewBox="0 0 116 69" fill="none" xmlns="http://www.w3.org/2000/svg">
<path d="M2.43271 66.5975C1.9053 58.8829 3.45635 52.8098 5.92876 48.354C8.40117 43.9039 11.8347 41.0799 15.0764 40.0135C16.6962 39.4774 18.2597 39.3803 19.6189 39.6912C20.9844 40.0054 22.1372 40.7079 23.042 41.7898C23.9425 42.8742 24.6305 44.3608 24.987 46.448C25.3393 48.5335 25.3331 51.2228 24.766 54.5649C24.7264 54.7893 24.6868 55.0161 24.6431 55.2454C24.6117 55.4143 24.5117 55.8239 24.3637 56.32C24.2136 56.821 24.0156 57.4256 23.78 58.0751C23.3067 59.3765 22.6792 60.8574 22.0059 62.0895C21.6702 62.7047 21.3242 63.2587 20.9949 63.6895C20.6675 64.1244 20.359 64.4312 20.1359 64.5814C19.9087 64.7396 19.8066 64.7348 19.7857 64.7315C19.7649 64.7184 19.7357 64.7503 19.5397 64.5365C19.0727 63.9931 18.7621 63.3566 18.5494 62.5227C18.341 61.6913 18.2493 60.664 18.291 59.4818C18.3681 57.1196 18.9914 54.1929 19.8983 51.2441C20.803 48.2904 21.9788 45.3057 23.1024 42.711C24.224 40.1139 25.2892 37.9125 25.9856 36.4789C26.7027 34.9988 27.7805 33.1773 29.0709 31.4115C30.3593 29.6457 31.8623 27.9327 33.4175 26.6235C34.9685 25.3064 36.5654 24.4144 37.9996 24.1583C38.7188 24.029 39.3964 24.0474 40.0447 24.2269C40.6972 24.4064 41.3268 24.7442 41.9689 25.3117C42.6089 25.8792 43.1321 26.5866 43.5699 27.4444C44.0035 28.2996 44.3475 29.3078 44.5935 30.4375C45.0855 32.6969 45.171 35.4394 44.8937 38.2209C44.6207 41.0057 43.9931 43.8305 43.1405 46.2554C42.292 48.6812 41.2059 50.7031 40.1469 51.8984C40.1302 51.9172 40.1198 51.9278 40.1177 51.9303C40.1198 51.9303 40.1156 51.9335 40.1198 51.9303C40.1219 51.9278 40.1281 51.9229 40.1364 51.9172C40.1677 51.8935 40.2428 51.8356 40.3845 51.7883C40.5221 51.7402 40.7347 51.7116 40.962 51.7695C41.1892 51.8193 41.4102 51.9596 41.5541 52.1049C41.702 52.2526 41.7812 52.3896 41.8229 52.4745C41.8668 52.561 41.8751 52.601 41.8751 52.601C41.873 52.601 41.8396 52.4451 41.8188 52.2077C41.7688 51.7247 41.7584 50.9144 41.7959 49.9639C41.8334 49.0084 41.9168 47.9028 42.0273 46.7442C42.2503 44.4212 42.588 41.8902 42.9028 39.8283C43.0592 38.7994 43.2093 37.8864 43.3364 37.1757C43.399 36.8248 43.4574 36.5213 43.5033 36.2896C43.5491 36.0595 43.5887 35.8881 43.5991 35.8563C44.1828 33.6048 45.5442 30.5801 47.3974 27.6027C49.2466 24.6175 51.5856 21.6535 54.083 19.3387C56.5784 17.016 59.2342 15.3689 61.6483 14.8648C62.8553 14.6088 63.9998 14.6273 65.078 14.9413C66.1574 15.2581 67.1834 15.8651 68.19 16.884C68.6489 17.3564 68.9698 17.9741 69.1947 18.8952C69.4138 19.8085 69.5015 21.0015 69.4286 22.3635C69.2907 25.09 68.5155 28.4315 67.4373 31.488C66.3662 34.5443 64.9839 37.3446 63.7955 39.0287C63.2143 39.8707 62.6639 40.415 62.401 40.57C62.3385 40.61 62.2966 40.6287 62.2843 40.6312C62.2824 40.6336 62.2824 40.6336 62.2824 40.6336C62.2824 40.6336 62.2843 40.6336 62.2882 40.6312C62.2985 40.6287 62.3153 40.6255 62.3385 40.6255C62.4319 40.61 62.6658 40.6842 62.7805 40.805C62.43 40.4778 62.2031 40.1457 62.0343 39.7785C61.8654 39.4089 61.7527 38.992 61.6966 38.4722C61.5793 37.4401 61.734 35.9754 62.2199 34.2594C63.1724 30.8176 65.3841 26.5048 68.065 22.3767C70.7459 18.2407 73.8895 14.2419 76.6729 11.196C78.0629 9.6757 79.366 8.38766 80.4525 7.45064C80.9945 6.98082 81.4843 6.60076 81.8883 6.32359C82.2911 6.0465 82.6185 5.87751 82.777 5.82203C86.5122 4.44954 89.4168 4.44432 91.4551 5.20184C92.4792 5.57929 93.2963 6.13878 93.9485 6.82506C94.6013 7.51396 95.095 8.33748 95.4578 9.30616C96.175 11.2303 96.3458 13.809 95.7517 16.7784C95.1639 19.7425 93.8112 23.0523 91.6182 26.2777C91.4616 26.51 91.2992 26.7714 91.0949 27.0986C90.8945 27.4233 90.6612 27.8007 90.4028 28.2072C89.8878 29.0202 89.2685 29.9493 88.6557 30.7464C88.0512 31.5434 87.4235 32.2007 87.0652 32.4356C86.9795 32.4963 86.9124 32.5306 86.8815 32.5438C86.8731 32.5464 86.8667 32.5491 86.8648 32.5491C86.8609 32.5517 86.8628 32.5517 86.8609 32.5517C86.8628 32.5491 86.8751 32.5464 86.9002 32.5438C86.944 32.5411 87.0381 32.5438 87.1444 32.5834C87.2508 32.6203 87.361 32.6969 87.4319 32.7708C87.3964 32.7312 87.3732 32.7022 87.3378 32.6229C87.3049 32.5438 87.263 32.4118 87.2314 32.2034C87.167 31.7942 87.167 31.0922 87.292 30.2264C87.5298 28.4843 88.2342 26.1406 89.1454 23.8152C90.0541 21.4846 91.1613 19.1486 92.1724 17.2641C92.677 16.3218 93.1584 15.4904 93.567 14.8411C93.9736 14.1917 94.3281 13.7087 94.484 13.5398C97.1488 10.544 99.521 8.70172 101.516 7.75947C103.519 6.81454 105.11 6.74853 106.402 7.18408C107.693 7.62746 108.769 8.58552 109.698 10.1112C110.622 11.6315 111.354 13.7246 111.794 16.2189C112.682 21.2021 112.371 27.7268 110.611 34.0853C108.858 40.4517 105.692 46.6381 100.978 51.1967C100.161 51.9882 100.004 53.4691 100.63 54.5037C101.253 55.5383 102.423 55.7366 103.24 54.9443C108.612 49.7476 112.167 42.7608 114.131 35.6377C116.088 28.5055 116.486 21.2232 115.429 15.1895C114.894 12.1725 113.989 9.45132 112.657 7.24209C111.329 5.04085 109.527 3.35423 107.366 2.62837C105.206 1.89199 102.767 2.1269 100.211 3.34363C97.647 4.56043 94.9287 6.74061 92.0119 10.0135C91.5718 10.5124 91.1471 11.1273 90.6567 11.9007C90.1714 12.6714 89.6417 13.59 89.0913 14.6167C87.9906 16.6702 86.8106 19.1618 85.8079 21.73C84.807 24.3035 83.9815 26.927 83.6271 29.4002C83.4563 30.6434 83.3983 31.8602 83.5755 33.0796C83.667 33.6893 83.823 34.2987 84.0711 34.8772C84.3192 35.4549 84.6633 35.9958 85.0906 36.4316C85.3845 36.7351 85.7408 36.9725 86.1037 37.1047C86.4684 37.2393 86.8358 37.2736 87.167 37.2418C87.834 37.1757 88.3676 36.8958 88.8432 36.5719C89.7854 35.9118 90.5716 34.9988 91.3217 34.0298C92.0661 33.0612 92.746 32.0291 93.3002 31.1581C93.5754 30.7225 93.8196 30.3266 94.0194 30.0073C94.2153 29.6932 94.3738 29.4398 94.4363 29.3474C96.9529 25.6417 98.5975 21.7247 99.3541 17.9292C100.109 14.1443 99.9799 10.4332 98.8166 7.30018C98.2347 5.74027 97.3943 4.34135 96.3233 3.2143C95.2516 2.08464 93.9569 1.22945 92.4914 0.691017C89.5502 -0.383245 85.9561 -0.227482 81.7446 1.3166C81.2007 1.51985 80.6839 1.81807 80.1271 2.19813C79.5748 2.57558 78.989 3.0401 78.3658 3.57853C77.1207 4.65279 75.7262 6.03858 74.2523 7.65389C71.3066 10.8846 68.0463 15.0337 65.2088 19.4125C62.3758 23.8046 59.9637 28.3841 58.7463 32.7022C58.1438 34.869 57.8292 37.0043 58.0484 39.1029C58.1605 40.1457 58.4189 41.1746 58.8507 42.1146C59.278 43.0512 59.8767 43.8851 60.6017 44.5583C61.1333 45.0682 61.8384 45.313 62.4487 45.2788C63.066 45.2526 63.5932 45.0201 64.0604 44.7223C64.9903 44.1152 65.7656 43.2177 66.5454 42.1146C68.0818 39.9074 69.5788 36.8093 70.7878 33.3726C71.9884 29.9361 72.8912 26.196 73.0788 22.667C73.1684 20.9012 73.0788 19.1751 72.6908 17.5492C72.3054 15.9339 71.5862 14.4002 70.4726 13.2785C69.0594 11.8427 67.4979 10.9056 65.8926 10.4411C64.2853 9.97654 62.6471 9.97653 61.0438 10.3197C57.8313 11.0165 54.7481 13.0278 51.9379 15.6355C49.1298 18.2513 46.5949 21.4845 44.5539 24.7812C42.5172 28.0858 40.9724 31.4194 40.1802 34.4227C40.1219 34.6504 40.0739 34.8796 40.0155 35.1701C39.9572 35.4581 39.8946 35.7927 39.8279 36.1754C39.6903 36.944 39.534 37.8994 39.3735 38.9708C39.0482 41.1167 38.7022 43.7301 38.4687 46.1999C38.352 47.4353 38.2644 48.6363 38.2227 49.7427C38.181 50.8483 38.181 51.8487 38.2707 52.7642C38.3165 53.2268 38.3811 53.6674 38.5145 54.1398C38.5834 54.3773 38.6709 54.6229 38.798 54.884C38.9273 55.1426 39.1024 55.42 39.3547 55.6705C39.6049 55.921 39.9405 56.1299 40.2928 56.2115C40.6472 56.2988 40.9974 56.2621 41.283 56.1642C41.8605 55.9634 42.2169 55.6126 42.5401 55.2536C44.1182 53.4373 45.3919 50.9356 46.3926 48.0823C47.3891 45.2265 48.0958 42.0166 48.4126 38.7725C48.7233 35.5291 48.6483 32.2482 47.9937 29.2498C47.6664 27.7506 47.189 26.32 46.5281 25.0266C45.8673 23.7333 45.0188 22.5773 43.9806 21.6614C42.9737 20.7719 41.8876 20.1832 40.7848 19.885C39.6841 19.5841 38.5729 19.5736 37.4972 19.7715C35.3396 20.178 33.3237 21.3921 31.4787 22.9547C29.6338 24.5226 27.9556 26.4572 26.5192 28.4342C25.0829 30.4112 23.8925 32.425 23.0378 34.1934C22.3415 35.6401 21.245 37.9206 20.0817 40.6255C18.9206 43.3336 17.6885 46.4725 16.7128 49.684C15.7393 52.9045 15.0055 56.1878 14.9012 59.3022C14.8512 60.8599 14.9617 62.3857 15.3286 63.8291C15.6913 65.27 16.3314 66.6269 17.2695 67.6982C17.8949 68.4293 18.7121 68.923 19.5459 68.989C20.3798 69.0633 21.1408 68.7516 21.7661 68.3086C22.3978 67.8622 22.9315 67.2813 23.4234 66.6318C23.9134 65.9799 24.3574 65.257 24.7681 64.4965C25.5895 62.9789 26.2816 61.3135 26.8153 59.8383C27.0821 59.0991 27.3073 58.408 27.4845 57.8034C27.6638 57.1906 27.7972 56.6815 27.8847 56.2139C27.9327 55.9553 27.9785 55.6966 28.0202 55.4412C28.6519 51.6504 28.6811 48.3589 28.187 45.5586C27.695 42.764 26.6526 40.4623 25.2247 38.8125C23.7987 37.1545 22.0226 36.1647 20.1401 35.7853C18.2555 35.4027 16.2542 35.6107 14.2779 36.3239C10.3233 37.7542 6.42492 41.2113 3.68983 46.4219C0.954674 51.6292 -0.575471 58.5924 0.202091 66.8905C0.348058 68.4481 2.53904 68.1601 2.43271 66.5975Z" fill="#E63946"/>
</svg>
